<svg xmlns="http://www.w3.org/2000/svg" viewBox="0 0 200 200" width="200" height="200">
  <!-- Cabeça do robô -->
  <rect x="60" y="30" width="80" height="60" rx="10" fill="#4e4376" />
  
  <!-- Olhos -->
  <circle cx="85" cy="55" r="10" fill="#2b5876" />
  <circle cx="115" cy="55" r="10" fill="#2b5876" />
  <circle cx="85" cy="55" r="5" fill="white" />
  <circle cx="115" cy="55" r="5" fill="white" />
  
  <!-- Antenas -->
  <line x1="75" y1="30" x2="65" y2="15" stroke="#4e4376" stroke-width="3" />
  <line x1="125" y1="30" x2="135" y2="15" stroke="#4e4376" stroke-width="3" />
  <circle cx="65" cy="15" r="5" fill="#2b5876" />
  <circle cx="135" cy="15" r="5" fill="#2b5876" />
  
  <!-- Corpo -->
  <rect x="70" y="90" width="60" height="70" rx="5" fill="#2b5876" />
  
  <!-- Botões -->
  <circle cx="100" cy="110" r="5" fill="#4e4376" />
  <circle cx="100" cy="130" r="5" fill="#4e4376" />
  <circle cx="100" cy="150" r="5" fill="#4e4376" />
  
  <!-- Braços -->
  <rect x="40" y="100" width="30" height="10" rx="5" fill="#4e4376" />
  <rect x="130" y="100" width="30" height="10" rx="5" fill="#4e4376" />
  
  <!-- Pernas -->
  <rect x="80" y="160" width="15" height="30" rx="5" fill="#4e4376" />
  <rect x="105" y="160" width="15" height="30" rx="5" fill="#4e4376" />
</svg>